<svg width="154" height="185" viewBox="0 0 154 185" fill="none" xmlns="http://www.w3.org/2000/svg">
<path d="M124.574 26.4V27.6H121.174V28.4H131.974V29.6H121.174V42C122.374 43 123.574 44 124.574 45.2L142.974 26.8V0.599996H144.174V25.6L152.374 17.4L153.174 18.2L144.174 27.2V91.6V184.2H142.974V155.8L142.774 156L124.574 137.8C123.574 139 122.374 140 121.174 141V153.6H132.174V154.4H121.174V155.6H124.574V156.4H121.174V184.2H119.974V156.4H78.9742H38.1742V184.2H36.9742V156.4H35.5742V155.6H36.9742V154.4H16.9742L14.9742 156.4V184.2H14.1742H13.9742V157.4L5.17422 166.2L4.37422 165.4L13.9742 155.8V154.4H2.97422V153.6H13.9742V133.6H2.97422V132.4H13.9742V50.4H0.774219V49.6H13.9742V29.6H0.774219V28.4H13.9742V27.2L4.97422 18.2L5.77422 17.4L13.9742 25.6V0.599996H14.9742V26.8L16.7742 28.4H36.9742V27.6H35.5742V26.4H36.9742V0.599996H38.1742V26.4H78.9742H119.974V0.599996H121.174V26.4H124.574ZM125.374 46C126.574 47 127.574 48.2 128.574 49.6H131.974V50.4H129.574C132.574 54.4 135.374 58.6 137.574 63C139.974 68.2 141.774 73.6 142.974 79.2V28.4L125.374 46ZM129.574 132.4H132.174V133.6H128.574C127.574 134.8 126.574 136 125.374 137L142.974 154.6V104C140.974 113.8 136.974 122.6 131.174 130.4C130.774 131 130.174 131.8 129.574 132.4ZM14.9742 29.6V49.6H29.5742C30.5742 48.2 31.5742 47 32.7742 46L16.3742 29.6H14.9742ZM14.9742 28.2V28.4H15.1742L14.9742 28.2ZM36.9742 131.4V130.2L33.1742 132.4H35.3742L36.9742 131.4ZM36.9742 129V127.6L29.3742 131.8C29.5742 132 29.7742 132.2 29.7742 132.4H31.1742L36.9742 129ZM38.1742 49.6H40.3742L74.7742 29.6H72.5742L38.1742 49.4V49.6ZM38.1742 47V48.4L70.3742 29.6H68.1742L38.1742 47ZM38.1742 44.4V45.8L65.9742 29.6H63.9742L38.1742 44.4ZM38.1742 42.2V43.2L60.5742 30.2C58.5742 30.8 56.5742 31.6 54.7742 32.4L39.7742 41C39.1742 41.4 38.5742 41.8 38.1742 42.2ZM40.1742 39.4C44.7742 36 49.5742 33.2 54.7742 31.2C55.3742 30.8 55.9742 30.6 56.5742 30.4C57.3742 30.2 58.1742 29.8 58.9742 29.6H38.1742V41C38.7742 40.4 39.5742 39.8 40.1742 39.4ZM38.1742 153.6H59.5742C51.5742 151 44.3742 147 38.1742 142V153.6ZM33.5742 137.8L17.7742 153.6H36.9742V141C35.7742 140 34.5742 139 33.5742 137.8ZM29.5742 133.6H14.9742V153.6H16.3742L32.7742 137C31.7742 136 30.9742 135.2 29.9742 134.2C29.7742 134 29.7742 133.8 29.5742 133.6ZM65.9742 155C65.3742 155 64.9742 154.8 64.3742 154.8C63.9742 154.6 63.3742 154.6 62.9742 154.4H38.1742V155.6H67.5742C67.3742 155.4 67.1742 155.4 66.7742 155.4C66.5742 155.2 66.1742 155.2 65.9742 155ZM14.9742 154.8L15.3742 154.4H14.9742V154.8ZM28.5742 132.4C21.7742 124 16.9742 114 14.9742 103V132.4H28.5742ZM78.3742 133.6L51.3742 149.2C51.7742 149.4 52.3742 149.6 52.7742 149.8L80.9742 133.6H78.9742H78.3742ZM50.5742 133.6H48.3742L38.1742 139.4V140.8L50.5742 133.6ZM46.3742 133.6H43.9742L38.1742 137V138.4L46.3742 133.6ZM41.9742 133.6H39.5742L38.1742 134.4V135.8L41.9742 133.6ZM30.9742 133.6C31.1742 134 31.3742 134.2 31.5742 134.4L33.1742 133.6H30.9742ZM34.1742 135.6L36.1742 133.6H35.3742L32.3742 135.4C32.7742 135.6 32.9742 135.8 33.1742 136.2L34.1742 135.6ZM38.1742 129.4V130.8L40.1742 129.6L43.3742 126.4L38.1742 129.4ZM38.1742 126.8V128.2L46.1742 123.6L48.9742 120.8C48.7742 120.8 48.7742 120.8 48.7742 120.8L38.1742 126.8ZM38.1742 124.4V125.8L47.9742 120C47.7742 119.8 47.5742 119.4 47.3742 119.2L38.1742 124.4ZM38.1742 122V123.2L46.5742 118.4C46.3742 118 46.1742 117.8 45.7742 117.4L38.1742 122ZM38.1742 119.4V120.6L45.1742 116.6C44.9742 116.4 44.7742 116 44.5742 115.8L38.1742 119.4ZM38.1742 117V118.4L43.9742 115C43.7742 114.6 43.5742 114.2 43.3742 114L38.1742 117ZM38.1742 114.4V115.8L42.7742 113C42.5742 112.6 42.3742 112.4 42.1742 112L38.1742 114.4ZM38.1742 112V113.2L41.7742 111.2C41.5742 110.8 41.3742 110.4 41.1742 110.2L38.1742 112ZM38.1742 109.4V110.8L40.7742 109.2C40.5742 108.8 40.5742 108.6 40.3742 108.2L38.1742 109.4ZM38.1742 107V108.2L39.9742 107.2C39.7742 106.8 39.7742 106.6 39.5742 106.2L38.1742 107ZM38.1742 104.4V105.8L39.1742 105.2C39.1742 104.8 38.9742 104.4 38.7742 104L38.1742 104.4ZM38.1742 102V103.2L38.5742 103C38.3742 102.6 38.3742 102.2 38.1742 102ZM108.374 61.4L108.774 61L108.174 61.2C108.374 61.4 108.374 61.4 108.374 61.4ZM67.9742 132.2L67.5742 132.4H68.9742C68.5742 132.4 68.3742 132.2 67.9742 132.2ZM66.5742 131.8C66.1742 131.6 65.7742 131.4 65.3742 131.4L63.3742 132.4H65.5742L66.5742 131.8ZM63.9742 130.8C63.5742 130.6 62.9742 130.4 62.5742 130.2L58.9742 132.4H61.3742L63.9742 130.8ZM61.3742 129.8C60.9742 129.6 60.5742 129.4 60.1742 129.2L54.5742 132.4H56.9742L61.3742 129.8ZM59.1742 128.6C58.7742 128.4 58.3742 128.2 57.9742 128L50.3742 132.4H52.7742L59.1742 128.6ZM56.9742 127.4C56.5742 127.2 56.1742 127 55.7742 126.6L45.9742 132.4H48.3742L56.9742 127.4ZM54.9742 126C54.5742 125.8 54.1742 125.6 53.7742 125.2L41.5742 132.4H43.9742L54.9742 126ZM41.1742 130.2L38.9742 132.4H39.5742L52.9742 124.6C52.7742 124.4 52.3742 124.2 51.9742 123.8L41.1742 130.2ZM47.1742 124.2L43.9742 127.4L51.3742 123.2C50.9742 123 50.7742 122.6 50.3742 122.4L47.1742 124.2ZM36.9742 136.4V135L35.3742 136L34.1742 137.2C34.3742 137.4 34.5742 137.6 34.7742 137.8L36.9742 136.4ZM121.774 49.6H127.174C126.374 48.6 125.574 47.6 124.574 46.8L124.174 47.2L121.774 49.6ZM121.174 45.2L122.374 44.6C122.174 44.2 121.774 44 121.574 43.8H121.174V45.2ZM123.574 46.2L123.774 46C123.574 45.6 123.374 45.4 123.174 45.2L121.174 46.4V47.6L123.574 46.2ZM127.974 50.4H121.174V132.4H128.374C130.174 130.2 131.774 127.8 133.374 125.4C139.374 115.6 142.974 104 142.974 91.6C142.974 76 137.374 61.6 127.974 50.4ZM87.5742 28.4H89.1742C88.7742 28.4 88.3742 28.2 87.9742 28.2L87.5742 28.4ZM82.9742 28.4H85.3742L85.9742 28C85.3742 28 84.7742 27.8 83.9742 27.8L82.9742 28.4ZM78.9742 28.4H80.9742L82.1742 27.6C81.5742 27.6 80.7742 27.6 80.1742 27.6L78.9742 28.4ZM74.5742 28.4H76.7742L78.1742 27.6C77.3742 27.6 76.7742 27.6 75.9742 27.6L74.5742 28.4ZM70.1742 28.4H72.3742L73.3742 27.8C72.5742 28 71.5742 28 70.7742 28.2L70.1742 28.4ZM124.774 136.4C125.574 135.4 126.374 134.6 127.174 133.6H121.974L124.774 136.4ZM36.9742 47.6L36.3742 48L36.9742 48.6V47.6ZM36.9742 43.8V43.4C36.3742 43.8 35.7742 44.4 35.1742 44.8L36.9742 43.8ZM36.9742 46.6V45.2L34.7742 46.4L35.5742 47.2L36.9742 46.6ZM33.7742 47C32.5742 47.8 31.7742 48.4 30.7742 49.6H31.7742L34.5742 47.8L33.7742 47ZM119.974 41V29.6H98.9742C101.974 30.6 104.774 31.8 107.574 33C111.974 35.2 116.174 37.8 119.974 41ZM119.974 142C113.774 147 106.574 151 98.5742 153.6H119.974V142ZM48.1742 59.8L64.5742 50.4H62.1742L47.3742 59C47.7742 59.4 47.9742 59.6 48.1742 59.8ZM46.7742 58.4L60.1742 50.4H57.7742L45.7742 57.4L46.7742 58.4ZM45.1742 56.8L55.7742 50.4H53.5742L44.3742 56L45.1742 56.8ZM43.5742 55.2L51.5742 50.4H49.3742L42.7742 54.4L43.5742 55.2ZM41.9742 53.6L47.1742 50.4H44.9742C43.5742 51.2 42.3742 52 41.1742 52.8L41.9742 53.6ZM40.3742 52L42.9742 50.4H40.7742L39.5742 51.2L40.3742 52ZM63.7742 52.4C64.7742 52 65.9742 51.6 66.9742 51.4C67.5742 51 68.1742 50.8 68.7742 50.4H66.5742L61.9742 53.2C62.5742 52.8 63.1742 52.6 63.7742 52.4ZM51.1742 60.2C52.1742 59.2 53.1742 58.4 54.3742 57.6L48.9742 60.6L49.7742 61.4C50.1742 61 50.5742 60.6 51.1742 60.2ZM121.174 139.6C121.974 139 122.974 138.2 123.774 137.4L121.174 138.8V139.6ZM121.174 137.8L123.374 136.6L122.374 135.6L121.174 136.2V137.8ZM121.174 135.2L121.774 135L121.174 134.4V135.2ZM105.374 124.4C106.574 123.6 107.774 122.8 108.974 122.2L108.374 121.6C107.374 122.6 106.374 123.4 105.374 124.4ZM115.174 132.4H117.374L118.574 131.8L117.774 131L115.174 132.4ZM110.774 132.4H113.174L116.974 130.2L116.174 129.4L110.774 132.4ZM106.374 132.4H108.774L115.374 128.6L114.574 127.8L106.374 132.4ZM101.974 132.4H104.374L113.774 127L112.974 126.2L101.974 132.4ZM97.7742 132.4H100.174L112.174 125.4L111.374 124.6L97.7742 132.4ZM93.5742 132.4H95.5742L110.574 123.8L109.774 123L93.5742 132.4ZM89.1742 132.4H91.3742L94.3742 130.6C92.7742 131.4 91.1742 131.8 89.3742 132.2C89.3742 132.4 89.3742 132.4 89.1742 132.4ZM38.3742 80.6C38.5742 80 38.7742 79.6 38.9742 79L38.1742 79.4V80.8L38.3742 80.6ZM39.3742 77.6C39.5742 77 39.7742 76.4 39.9742 76L38.1742 77V78.4L39.3742 77.6ZM40.5742 74.4C40.9742 73.8 41.1742 73 41.5742 72.4L38.1742 74.4V75.8L40.5742 74.4ZM42.5742 70.6C42.9742 70 43.3742 69.2 43.9742 68.6L38.1742 71.8V73.2L42.5742 70.6ZM45.1742 66.6C45.7742 65.8 46.3742 65 47.1742 64.2L38.1742 69.4V70.8L45.1742 66.6ZM48.7742 62L47.9742 61.2L38.1742 67V68.2L48.7742 62ZM47.1742 60.4L46.3742 59.6L38.1742 64.4V65.8L47.1742 60.4ZM45.7742 59L44.7742 58L38.1742 62V63.2L45.7742 59ZM44.1742 57.4L43.3742 56.6L38.1742 59.4V60.8L44.1742 57.4ZM42.5742 55.8L41.7742 55L38.1742 57V58.2L42.5742 55.8ZM40.9742 54.2L40.1742 53.4L38.1742 54.4V55.8L40.9742 54.2ZM39.3742 52.6L38.5742 51.8L38.1742 52V53.2L39.3742 52.6ZM110.574 119.2C110.174 119.8 109.574 120.4 109.174 120.8L109.974 121.6L110.774 122.4L111.574 123.2L112.374 124L113.174 124.8L114.774 126.4L116.374 128L117.974 129.6L119.974 131.6V101C118.374 108 114.974 114.2 110.574 119.2ZM109.174 62.2C114.374 67.6 118.174 74.4 119.974 82V51.4L109.174 62.2ZM90.5742 155.6H119.974V154.4H95.1742C93.5742 154.8 92.1742 155.2 90.5742 155.6ZM36.9742 29.6H17.9742L33.5742 45.2C34.5742 44 35.7742 43 36.9742 42V29.6ZM38.1742 28.4H62.9742C64.1742 28.2 65.3742 27.8 66.5742 27.6H38.1742V28.4ZM94.9742 28.4H119.974V27.6H91.3742C92.5742 27.8 93.7742 28.2 94.9742 28.4ZM79.7742 91.6L108.374 120C108.974 119.6 109.374 119 109.974 118.4C115.574 112 119.374 103.6 119.974 94.4V88.6C119.574 82 117.374 75.6 114.174 70.2C112.574 67.6 110.574 65.2 108.374 63L79.7742 91.6ZM78.9742 90.8L107.574 62.2C105.374 60 102.974 58.2 100.374 56.6C94.1742 52.8 86.9742 50.6 79.1742 50.4H78.9742C68.7742 50.4 59.3742 54.4 52.1742 60.6C51.5742 61.2 50.9742 61.6 50.5742 62.2L78.9742 90.8ZM78.9742 92.4L50.5742 120.8C57.7742 128 67.9742 132.4 78.9742 132.4C89.9742 132.4 100.174 128 107.574 120.8L78.9742 92.4ZM78.1742 91.6L49.7742 63C42.5742 70.4 38.1742 80.6 38.1742 91.6C38.1742 102.6 42.5742 112.8 49.7742 120L78.1742 91.6ZM14.9742 50.4V80C16.9742 69 21.7742 58.8 28.5742 50.4H14.9742ZM33.7742 49.6H36.1742V49.4L35.3742 48.6L33.7742 49.6ZM31.9742 50.4L28.1742 52.8C27.5742 53.6 26.9742 54.4 26.3742 55.2L34.3742 50.4H31.9742ZM30.1742 50.4H29.9742C29.9742 50.6 29.7742 50.6 29.7742 50.8L30.1742 50.4ZM36.3742 50.4L25.1742 57C24.7742 57.6 24.3742 58.2 23.9742 59L36.9742 51.4V50.4H36.3742ZM42.5742 49.6H44.5742L78.7742 29.6H76.7742L42.5742 49.6ZM22.7742 61C22.5742 61.6 22.1742 62.2 21.9742 62.8L36.9742 54V52.8L22.7742 61ZM46.5742 49.6H48.9742L83.3742 29.6H80.9742L46.5742 49.6ZM21.1742 64.2C20.7742 64.8 20.5742 65.4 20.3742 66.2L36.9742 56.4V55.2L21.1742 64.2ZM51.1742 49.6H53.3742L87.7742 29.6H85.5742L51.1742 49.6ZM19.5742 67.6C19.3742 68.2 19.1742 68.8 18.9742 69.4L36.9742 59V57.6L19.5742 67.6ZM55.3742 49.6H57.5742L91.7742 29.6H89.7742L55.3742 49.6ZM18.5742 70.8C18.3742 71.4 18.1742 72 17.9742 72.6L36.9742 61.4V60.2L18.5742 70.8ZM59.5742 49.6H61.9742L95.7742 29.8C95.5742 29.8 95.1742 29.6 94.9742 29.6H93.7742L59.5742 49.6ZM17.5742 74C17.3742 74.4 17.1742 75 17.1742 75.6L36.9742 64V62.6L17.5742 74ZM63.9742 49.6H66.1742L98.7742 30.8C98.1742 30.6 97.7742 30.4 97.1742 30.2L63.9742 49.6ZM16.7742 77C16.5742 77.4 16.5742 77.8 16.3742 78.2L36.9742 66.4V65.2L16.7742 77ZM68.1742 49.6H70.5742L101.374 31.6C100.974 31.4 100.374 31.2 99.9742 31.2L68.1742 49.6ZM16.1742 79.8C15.9742 80.2 15.9742 80.6 15.9742 81.2L36.9742 69V67.6L16.1742 79.8ZM15.7742 82.4C15.5742 82.8 15.5742 83.4 15.5742 84L36.9742 71.4V70L15.7742 82.4ZM72.3742 49.6H74.7742L103.974 32.6C103.574 32.4 102.974 32.2 102.574 32L72.3742 49.6ZM15.3742 85.2C15.3742 85.6 15.3742 86.2 15.1742 86.6L36.9742 74V72.6L15.3742 85.2ZM76.9742 49.6H79.1742L106.374 33.8C105.974 33.6 105.574 33.4 105.174 33.2L76.9742 49.6ZM15.1742 87.8C15.1742 88.2 15.1742 88.8 15.1742 89.2L36.9742 76.6V75.2L15.1742 87.8ZM81.1742 49.6H83.5742L108.574 34.8C108.174 34.6 107.774 34.4 107.374 34.2L81.1742 49.6ZM15.1742 90.2C15.1742 90.6 14.9742 91 14.9742 91.6L36.9742 79V77.6L15.1742 90.2ZM85.5742 49.6H87.9742L110.774 36C110.374 35.8 110.174 35.6 109.774 35.4L85.5742 49.6ZM15.1742 92.8C15.1742 93.2 15.1742 93.6 15.1742 94L36.9742 81.4V80.2L15.1742 92.8ZM89.7742 49.6H92.1742L113.174 37.4C112.774 37.2 112.174 37 111.774 36.6L89.7742 49.6ZM15.1742 95.2C15.1742 95.6 15.1742 96 15.1742 96.4L36.9742 84V82.6L15.1742 95.2ZM90.5742 50.4H88.1742C88.7742 50.6 89.3742 50.8 89.7742 50.8L90.5742 50.4ZM92.5742 50.4L91.1742 51.2C91.7742 51.4 92.1742 51.6 92.7742 51.8L94.7742 50.4H92.5742ZM94.1742 49.6H96.5742L115.174 38.8C114.774 38.6 114.374 38.2 113.974 38L94.1742 49.6ZM15.3742 97.6C15.3742 98 15.3742 98.4 15.5742 98.8L36.9742 86.6V85.2L15.3742 97.6ZM96.7742 50.4C95.7742 51 94.7742 51.6 93.7742 52.2C94.3742 52.4 94.7742 52.6 95.3742 52.8C96.5742 52 97.9742 51.2 99.1742 50.4H96.7742ZM98.5742 49.6H100.974L116.974 40.2C116.774 39.8 116.374 39.6 115.974 39.4L98.5742 49.6ZM15.5742 100C15.7742 100.4 15.7742 100.8 15.7742 101.4L36.9742 89V87.6L15.5742 100ZM101.174 50.4C99.5742 51.4 97.9742 52.4 96.3742 53.2C96.7742 53.4 97.1742 53.6 97.5742 53.8L103.374 50.4H101.174ZM102.774 49.6H105.174L118.974 41.6C118.574 41.4 118.374 41 117.974 40.8L102.774 49.6ZM15.9742 102.2C15.9742 102.6 16.1742 103 16.1742 103.6L36.9742 91.6V90L15.9742 102.2ZM105.574 50.4L98.7742 54.4C99.1742 54.6 99.5742 54.8 99.9742 55L107.774 50.4H105.574ZM107.174 49.6H109.374L119.974 43.4V42.4L119.774 42.2L107.174 49.6ZM16.3742 104.6C16.5742 105 16.5742 105.4 16.5742 105.6L36.9742 94V92.6L16.3742 104.6ZM109.774 50.4L100.974 55.6C101.174 55.8 101.574 56 101.974 56.2L111.974 50.4H109.774ZM111.574 49.6H113.774L119.974 46V44.6L111.574 49.6ZM16.9742 106.6C16.9742 107 17.1742 107.6 17.1742 108L36.9742 96.6V95L16.9742 106.6ZM113.974 50.4L102.774 56.8C103.174 57.2 103.574 57.4 103.974 57.6L116.174 50.4H113.974ZM115.774 49.6H117.974L119.974 48.4V47L115.774 49.6ZM17.3742 108.8C17.5742 109.2 17.7742 109.6 17.7742 110.2L36.9742 99V97.6L17.3742 108.8ZM118.374 50.4L104.774 58.2C104.974 58.6 105.374 58.8 105.774 59L117.174 52.6L119.374 50.4H118.374ZM18.1742 111C18.1742 111.4 18.3742 111.8 18.3742 112L36.9742 101.4V100L18.1742 111ZM106.574 59.8C106.974 60 107.174 60.4 107.574 60.6L111.574 58.2L114.774 55L106.574 59.8ZM18.7742 113.2C18.9742 113.6 19.1742 113.8 19.1742 114.2L36.9742 104V102.6L18.7742 113.2ZM19.5742 115.2C19.7742 115.6 19.9742 116 19.9742 116.2L36.9742 106.4V105L19.5742 115.2ZM20.5742 117.2C20.5742 117.6 20.7742 118 20.9742 118.2L36.9742 109V107.6L20.5742 117.2ZM21.3742 119.2C21.5742 119.6 21.7742 119.8 21.9742 120.2L36.9742 111.4V110.2L21.3742 119.2ZM22.3742 121C22.5742 121.4 22.5742 121.8 22.7742 122L36.9742 114V112.6L22.3742 121ZM23.3742 123.2C23.5742 123.4 23.7742 123.8 23.9742 124.2L36.9742 116.4V115L23.3742 123.2ZM24.3742 124.8C24.5742 125.2 24.9742 125.6 25.1742 125.8L36.9742 119V117.6L24.3742 124.8ZM25.5742 126.8C25.7742 127 25.9742 127.4 26.3742 127.6L36.9742 121.4V120.2L25.5742 126.8ZM26.7742 128.4C27.1742 128.8 27.3742 129.2 27.5742 129.4L36.9742 124V122.6L26.7742 128.4ZM28.1742 130.2C28.3742 130.6 28.5742 130.8 28.7742 131.2L36.9742 126.4V125.2L28.1742 130.2ZM35.5742 138.4C35.9742 138.8 36.1742 139 36.5742 139.2L36.9742 139V137.8L35.5742 138.4ZM39.1742 141.4C39.3742 141.8 39.7742 142 40.1742 142.2L54.9742 133.6H52.5742L39.1742 141.4ZM40.9742 142.8C41.1742 143.2 41.5742 143.4 41.9742 143.6L59.3742 133.6H56.9742L40.9742 142.8ZM42.7742 144.2C43.1742 144.4 43.5742 144.8 43.9742 145L63.5742 133.6H61.3742L42.7742 144.2ZM44.7742 145.6C45.1742 145.8 45.5742 146 45.9742 146.2L67.9742 133.6H65.5742L44.7742 145.6ZM46.9742 146.8C47.3742 147 47.7742 147.4 48.1742 147.6L72.1742 133.6H69.7742L46.9742 146.8ZM49.1742 148C49.5742 148.2 49.9742 148.6 50.3742 148.8L76.3742 133.6H74.1742L49.1742 148ZM53.9742 150.4C54.3742 150.6 54.7742 150.8 55.3742 151L84.9742 133.6H82.7742L53.9742 150.4ZM56.3742 151.4C56.9742 151.6 57.3742 151.8 57.9742 152L89.3742 133.6H87.1742L56.3742 151.4ZM59.1742 152.4C59.5742 152.4 59.9742 152.6 60.5742 152.8L93.5742 133.6H91.3742L59.1742 152.4ZM61.9742 153.2C62.3742 153.2 62.7742 153.4 63.1742 153.6H63.9742L97.9742 133.6H95.7742L61.9742 153.2ZM65.5742 153.6H67.9742L102.374 133.6H99.9742L65.5742 153.6ZM68.3742 154.4C68.7742 154.6 69.3742 154.8 69.9742 154.8L70.5742 154.4H68.3742ZM69.9742 153.6H72.1742L106.774 133.6H104.374L69.9742 153.6ZM72.3742 154.4L71.3742 155C72.1742 155.2 72.9742 155.2 73.7742 155.2L75.1742 154.4H72.3742ZM74.1742 153.6H76.7742L111.174 133.6H108.574L74.1742 153.6ZM76.7742 154.4L75.1742 155.4C75.9742 155.4 76.7742 155.4 77.5742 155.4L79.1742 154.4H76.7742ZM78.3742 153.6H80.9742L115.174 133.6H112.974L78.3742 153.6ZM81.1742 154.4L79.3742 155.6C80.1742 155.6 80.9742 155.4 81.7742 155.4L83.3742 154.4H81.1742ZM82.7742 153.6H85.1742L119.574 133.6H117.374L82.7742 153.6ZM85.3742 154.4L83.9742 155.4C84.9742 155.2 85.9742 155.2 86.7742 155L87.7742 154.4H85.3742ZM87.1742 153.6H89.3742L119.974 135.8V134.6L87.1742 153.6ZM89.7742 154.4L89.5742 154.6C89.7742 154.6 90.1742 154.6 90.3742 154.4H89.7742ZM91.5742 153.6H93.9742L119.974 138.4V137L91.5742 153.6ZM101.974 151.4L119.374 141.2C119.574 141 119.774 140.8 119.974 140.8V139.6L96.7742 153C98.5742 152.6 100.174 152 101.974 151.4Z" fill="white"/>
</svg>
